<mxfile host="5e2ad3d2-69b0-4cf1-93c6-b56b77208be7" modified="2020-09-07T23:56:29.164Z" agent="5.0 (Windows NT 10.0; Win64; x64) AppleWebKit/537.36 (KHTML, like Gecko) Code/1.48.2 Chrome/78.0.3904.130 Electron/7.3.2 Safari/537.36" etag="Xeo3YVcyY_FyB3MPAtdJ" version="13.1.3">
    <diagram id="6hGFLwfOUW9BJ-s0fimq" name="Page-1">
        <mxGraphModel dx="806" dy="549" grid="1" gridSize="10" guides="1" tooltips="1" connect="1" arrows="1" fold="1" page="1" pageScale="1" pageWidth="827" pageHeight="1169" math="0" shadow="0">
            <root>
                <mxCell id="0"/>
                <mxCell id="1" parent="0"/>
                <mxCell id="6" value="fase" style="edgeStyle=orthogonalEdgeStyle;rounded=0;orthogonalLoop=1;jettySize=auto;html=1;" edge="1" parent="1" source="2" target="3">
                    <mxGeometry x="0.5556" relative="1" as="geometry">
                        <Array as="points">
                            <mxPoint x="330" y="120"/>
                            <mxPoint x="330" y="85"/>
                        </Array>
                        <mxPoint as="offset"/>
                    </mxGeometry>
                </mxCell>
                <mxCell id="10" value="fase" style="edgeStyle=orthogonalEdgeStyle;rounded=0;orthogonalLoop=1;jettySize=auto;html=1;entryX=0;entryY=0.5;entryDx=0;entryDy=0;exitX=1;exitY=0.5;exitDx=0;exitDy=0;" edge="1" parent="1" source="2" target="9">
                    <mxGeometry x="0.5692" relative="1" as="geometry">
                        <mxPoint x="160" y="120" as="sourcePoint"/>
                        <Array as="points">
                            <mxPoint x="330" y="120"/>
                            <mxPoint x="330" y="165"/>
                        </Array>
                        <mxPoint as="offset"/>
                    </mxGeometry>
                </mxCell>
                <mxCell id="20" style="edgeStyle=orthogonalEdgeStyle;rounded=0;orthogonalLoop=1;jettySize=auto;html=1;entryX=0.5;entryY=0;entryDx=0;entryDy=0;" edge="1" parent="1" source="2" target="19">
                    <mxGeometry relative="1" as="geometry"/>
                </mxCell>
                <mxCell id="2" value="Game manager" style="whiteSpace=wrap;html=1;" parent="1" vertex="1">
                    <mxGeometry x="40.00999999999999" y="100" width="120" height="40" as="geometry"/>
                </mxCell>
                <mxCell id="3" value="Spawn" style="whiteSpace=wrap;html=1;" vertex="1" parent="1">
                    <mxGeometry x="440" y="70" width="120" height="30" as="geometry"/>
                </mxCell>
                <mxCell id="4" value="int fase&lt;br&gt;float tempo&lt;br&gt;float tempo_fase" style="ellipse;whiteSpace=wrap;html=1;" vertex="1" parent="1">
                    <mxGeometry x="31.880000000000003" y="150" width="136.25" height="70" as="geometry"/>
                </mxCell>
                <mxCell id="9" value="Spawn_f" style="whiteSpace=wrap;html=1;" vertex="1" parent="1">
                    <mxGeometry x="440" y="150" width="120" height="30" as="geometry"/>
                </mxCell>
                <mxCell id="11" value="interface_randler" style="whiteSpace=wrap;html=1;" vertex="1" parent="1">
                    <mxGeometry x="440" y="220" width="120" height="30" as="geometry"/>
                </mxCell>
                <mxCell id="24" value="altura" style="edgeStyle=orthogonalEdgeStyle;rounded=0;orthogonalLoop=1;jettySize=auto;html=1;entryX=0;entryY=0.5;entryDx=0;entryDy=0;" edge="1" parent="1" source="19" target="11">
                    <mxGeometry x="0.2085" relative="1" as="geometry">
                        <Array as="points">
                            <mxPoint x="330" y="260"/>
                            <mxPoint x="330" y="235"/>
                        </Array>
                        <mxPoint as="offset"/>
                    </mxGeometry>
                </mxCell>
                <mxCell id="19" value="velocity_handler" style="whiteSpace=wrap;html=1;" vertex="1" parent="1">
                    <mxGeometry x="168.13" y="240" width="120" height="40" as="geometry"/>
                </mxCell>
                <mxCell id="22" value="float velocidade&lt;br&gt;altura atual" style="ellipse;whiteSpace=wrap;html=1;" vertex="1" parent="1">
                    <mxGeometry x="168.14" y="290" width="119.99" height="50" as="geometry"/>
                </mxCell>
                <mxCell id="23" value="Movimentação" style="whiteSpace=wrap;html=1;" vertex="1" parent="1">
                    <mxGeometry x="40" y="380" width="120" height="40" as="geometry"/>
                </mxCell>
            </root>
        </mxGraphModel>
    </diagram>
</mxfile>